<svg xmlns="http://www.w3.org/2000/svg" xmlns:xlink="http://www.w3.org/1999/xlink" width="350" zoomAndPan="magnify" viewBox="0 0 262.5 262.500001" height="350" preserveAspectRatio="xMidYMid meet" version="1.0"><defs><g/></defs><g fill="#ff577f" fill-opacity="1"><g transform="translate(-5.905364, 200.624984)"><g><path d="M 31.796875 1.90625 C 19.640625 1.90625 13.5625 -4.238281 13.5625 -16.53125 L 13.5625 -132.0625 C 13.5625 -138.28125 15.113281 -143.050781 18.21875 -146.375 C 21.332031 -149.695312 25.4375 -151.359375 30.53125 -151.359375 C 35.050781 -151.359375 38.546875 -150.507812 41.015625 -148.8125 C 43.492188 -147.113281 46.359375 -144.285156 49.609375 -140.328125 L 110.875 -63.8125 L 110.875 -133.125 C 110.875 -145.28125 116.878906 -151.359375 128.890625 -151.359375 C 134.828125 -151.359375 139.3125 -149.765625 142.34375 -146.578125 C 145.382812 -143.398438 146.90625 -138.914062 146.90625 -133.125 L 146.90625 -15.6875 C 146.90625 -10.3125 145.488281 -6.035156 142.65625 -2.859375 C 139.832031 0.316406 136.019531 1.90625 131.21875 1.90625 C 126.414062 1.90625 122.632812 1.054688 119.875 -0.640625 C 117.125 -2.335938 114.191406 -5.160156 111.078125 -9.109375 L 49.8125 -85.640625 L 49.8125 -16.53125 C 49.8125 -4.238281 43.804688 1.90625 31.796875 1.90625 Z M 31.796875 1.90625 "/></g></g></g><g fill="#ff577f" fill-opacity="1"><g transform="translate(141.001391, 200.624984)"><g><path d="M 50.03125 2.328125 C 36.457031 2.328125 26.457031 -1.378906 20.03125 -8.796875 C 13.601562 -16.210938 10.390625 -27.554688 10.390625 -42.828125 L 10.390625 -87.34375 C 10.390625 -99.914062 16.675781 -106.203125 29.25 -106.203125 C 35.332031 -106.203125 40 -104.578125 43.25 -101.328125 C 46.5 -98.078125 48.125 -93.414062 48.125 -87.34375 L 48.125 -41.765625 C 48.125 -31.585938 52.503906 -26.5 61.265625 -26.5 C 66.347656 -26.5 70.515625 -28.332031 73.765625 -32 C 77.015625 -35.675781 78.640625 -40.554688 78.640625 -46.640625 L 78.640625 -87.34375 C 78.640625 -99.914062 84.929688 -106.203125 97.515625 -106.203125 C 103.585938 -106.203125 108.25 -104.578125 111.5 -101.328125 C 114.75 -98.078125 116.375 -93.414062 116.375 -87.34375 L 116.375 -17.171875 C 116.375 -4.453125 110.300781 1.90625 98.15625 1.90625 C 87.269531 1.90625 81.117188 -3.179688 79.703125 -13.359375 C 72.921875 -2.898438 63.03125 2.328125 50.03125 2.328125 Z M 50.03125 2.328125 "/></g></g></g></svg>